<?xml version="1.0" encoding="utf-8"?>
<!-- Generator: Adobe Illustrator 19.1.0, SVG Export Plug-In . SVG Version: 6.00 Build 0)  -->
<svg version="1.1" id="Capa_1" xmlns="http://www.w3.org/2000/svg" xmlns:xlink="http://www.w3.org/1999/xlink" x="0px" y="0px"
	 viewBox="0 0 248 246" style="enable-background:new 0 0 248 246;" xml:space="preserve">
<style type="text/css">
	.st0{fill:#009BDB;}
	.st1{fill:#009BDB;stroke:#FFFFFF;stroke-width:5;stroke-miterlimit:10;}
	.st2{fill:#FFFFFF;}
</style>
<g>
	<circle class="st0" cx="124" cy="123" r="119.7"/>
	<circle class="st1" cx="124" cy="123" r="106.3"/>
	<g>
		<path class="st2" d="M82,92.6c0,5.8-1.9,10.3-5.7,13.5c-3.6,3-8.4,4.5-14.4,4.5H50.3v23.1h-8.9V74.9h20.4c5.8,0,10.5,1.5,14.2,4.5
			C80,82.6,82,87,82,92.6z M73.1,92.3c0-3.1-1.1-5.4-3.3-7.1c-2-1.4-4.6-2.2-7.8-2.2H50.3v19.4H62c3.3,0,6-0.9,8-2.6
			C72.1,98.1,73.1,95.5,73.1,92.3z"/>
		<path class="st2" d="M136.9,133.7h-9.2l-4.4-13h-23l-4.4,13h-9.2l21.1-58.8h7.9L136.9,133.7z M120.8,113.1L112,86.7h-0.3
			l-8.8,26.4H120.8z"/>
		<path class="st2" d="M153.5,133.7h-8.9V74.9h8.9V133.7z"/>
		<path class="st2" d="M208.3,117.6c0,5.8-2.2,10.1-6.6,13.1c-3.9,2.6-8.8,3.9-14.8,3.9c-8.1,0-15.3-2.6-21.6-7.8l5.9-6.9
			c5.5,4.2,10.9,6.3,16.2,6.3c3.4,0,6.1-0.6,8.2-1.9c2.6-1.6,3.9-3.9,3.9-7.1c0-1.8-0.6-3.4-1.9-4.8c-1.3-1.3-2.9-2.2-4.7-2.7
			c-1.2-0.2-3-0.6-5.4-1l-3.4-0.7c-10.4-2-15.5-7.5-15.5-16.4c0-5.4,1.8-9.8,5.5-13c3.5-3,8-4.5,13.5-4.5c4.1,0,8.2,0.8,12.2,2.4
			c2.3,1,4.7,2.2,7.1,3.9l-5,7.1c-4.7-3.4-9.4-5-14.1-5c-2.9,0-5.3,0.6-7.1,1.9c-2.1,1.5-3.2,3.7-3.2,6.5c0,4.9,3.8,7.9,11.3,9.2
			l4.2,0.7C203.1,102.3,208.3,107.9,208.3,117.6z"/>
	</g>
	<g>
		<path class="st2" d="M61.1,173.1c-2.1,2.1-4.9,3.2-8.5,3.2H41v-34.5h11.6c3.6,0,6.3,0.9,8.1,2.8c1.8,1.9,2.9,3.8,3.2,5.8
			c0.3,2,0.5,4.8,0.5,8.3v1.8c0,2.9-0.2,5.4-0.6,7.4C63.5,169.9,62.6,171.6,61.1,173.1z M58.6,147.6c-0.8-0.9-1.8-1.5-2.9-1.9
			s-2.4-0.6-3.7-0.6h-7.4V173H52c1.4,0,2.7-0.2,3.7-0.6c1.1-0.4,2.1-1.1,3-2.1c0.9-1,1.5-2.4,1.8-4.3c0.2-1.8,0.4-4.3,0.4-7.4v-1.6
			c0-3-0.2-5.1-0.5-6.3C60,149.5,59.4,148.5,58.6,147.6z"/>
		<path class="st2" d="M73,176.3v-34.5h3.6v34.5H73z"/>
		<path class="st2" d="M105.9,172.6c-2.4,2.6-5.4,4-9,4c-3.4,0-6.1-1-8-2.9s-3-3.8-3.3-5.7c-0.3-1.8-0.5-4.8-0.5-8.9
			c0-3.4,0.1-6.1,0.3-8.2c0.2-2,1.3-4.1,3.4-6.2c2-2.1,4.8-3.1,8.2-3.1c3.2,0,5.9,0.9,8,2.8c2.1,1.9,3.4,4.4,3.9,7.5h-3.6
			c-0.5-2.2-1.4-3.9-2.9-5.1c-1.4-1.2-3.2-1.9-5.4-1.9c-2.4,0-4.2,0.7-5.5,2.1c-1.3,1.4-2.1,2.8-2.4,4.3c-0.3,1.5-0.4,4.1-0.4,7.9
			c0,3.8,0.1,6.4,0.4,7.9c0.3,1.5,1,2.9,2.3,4.3c1.3,1.3,3.1,2,5.5,2c2.7,0,4.7-0.9,6.2-2.6c1.4-1.8,2.1-3.9,2.1-6.5v-2.6h-8.3v-3.2
			h11.9v5.5c0,2-0.2,3.7-0.7,5.1C107.7,170.2,107,171.4,105.9,172.6z"/>
		<path class="st2" d="M117.2,176.3v-34.5h3.6v34.5H117.2z"/>
		<path class="st2" d="M140.5,145.1v31.2h-3.6v-31.2h-9.8v-3.3h23.2v3.3H140.5z"/>
		<path class="st2" d="M176.3,176.3l-2.7-7.8h-14.7l-2.8,7.8h-3.8l12.4-34.5h3l12.4,34.5L176.3,176.3z M166.3,147.1l-6.3,18.1h12.6
			L166.3,147.1z"/>
		<path class="st2" d="M185.6,176.3v-34.5h3.6V173h17.3v3.3H185.6z"/>
	</g>
</g>
</svg>
